<?xml version="1.0" encoding="UTF-8"?>
<svg xmlns="http://www.w3.org/2000/svg" xmlns:xlink="http://www.w3.org/1999/xlink" viewBox="0 0 198.43 255.12">
  <defs>
    <style>
      .cls-1 {
        fill: none;
      }

      .cls-2 {
        fill: #fde9e0;
      }

      .cls-3 {
        fill: #95bba9;
      }

      .cls-4 {
        fill: #c63320;
      }

      .cls-5 {
        fill: #5b1312;
      }

      .cls-6 {
        fill: #ee7561;
      }

      .cls-7 {
        fill: #a3ceb8;
      }

      .cls-8 {
        fill: #f2c5ad;
      }

      .cls-9 {
        fill: #335997;
      }

      .cls-10 {
        fill: #fff;
      }

      .cls-11 {
        fill: #eb5d41;
      }

      .cls-12 {
        fill: #33988b;
      }

      .cls-13 {
        fill: #f5ceb6;
      }

      .cls-14 {
        fill: #d8462a;
      }

      .cls-15 {
        fill: #227c6c;
      }

      .cls-16 {
        fill: #96191c;
      }

      .cls-17 {
        fill: #f09d8c;
      }

      .cls-18 {
        fill: #f7b7aa;
      }

      .cls-19 {
        clip-path: url(#clippath);
      }
    </style>
    <clipPath id="clippath">
      <path class="cls-1" d="M190.07,7.05H8.8c-.78,0-1.42.64-1.42,1.42v146.47c.66,21.01,6.64,43.28,27.13,56.93,16.04,10.69,28.22,15.56,41.36,23,.51.25,1.02.51,1.53.77,7.48,3.81,14.62,8.35,22.04,12.65,0,0,0,0,0,0,0,0,0,0,0,0,7.42-4.31,14.56-8.84,22.04-12.65.51-.26,1.02-.52,1.53-.77,13.14-7.44,25.32-12.31,41.36-23,20.49-13.66,26.46-35.92,27.13-56.93V8.47c0-.78-.64-1.42-1.42-1.42Z"/>
    </clipPath>
  </defs>
  <g id="ECUSSON">
    <g class="cls-19">
      <rect class="cls-13" x="-98.63" y="9.06" width="375.85" height="274.78" rx="3.27" ry="3.27"/>
      <rect class="cls-8" x="-98.63" y="61.83" width="375.85" height="222.67"/>
      <path class="cls-8" d="M83.58,74.44l-1.53-18.55,12.94-15.83s12.41.95,12.75,1.07,10.26,16.45,10.26,16.45l-.82,17.76-2.49,1.05c-9.72,4.1-20.78,3.58-30.08-1.4l-1.02-.55Z"/>
      <path class="cls-2" d="M-2.3,84.02s37.09,2.97,38.45,2.7c1.36-.27,4.47-1.67,5.56-1.67s5.4,3.6,6.49,3.6,11.17-1.63,16.61-.82c5.45.82,12.26,1.63,18.79,1.63s26.15-.54,26.15-.54l162.18-6.32,4.51,149.34H-99.41l-31.17-149.83,128.28,1.91Z"/>
      <path class="cls-2" d="M141.77,94.38c-.09-1.25-4.71-7.97-6.39-8.55l-14.59-3.14h-.4c.48-.48.49-1.26,0-1.75-.66-.65-2.68-2.17-3.24-2.5-.05.05.05-.05,0,0-2.28,4.72-8.88,9.07-16.59,9.07s-12.97-2.45-16.61-7.36l-1.76.97c-.5.5-.57,1.29-.15,1.86l.39.54-14.39,2.43c-1.08.42-8.06,7.4-8.23,8.54l10.09-.03,60.97-.26,10.9.19Z"/>
      <g>
        <path class="cls-2" d="M117.33,71.05s-4.9,8.3-17.24,8.34c-12.34-.04-17.24-8.34-17.24-8.34-1.02-.49.13,3.45.73,5.31.23.71.52,1.4.89,2.04,4.63,7.9,14.64,7.92,15.62,7.91.99.02,10.99,0,15.62-7.91.38-.64.67-1.33.89-2.04.59-1.86,1.75-5.8.73-5.31ZM99.82,85.72c7.36-1.34,13.61-5.67,13.61-5.67-3.86,5.5-13.61,5.67-13.61,5.67Z"/>
        <path class="cls-2" d="M120.83,58.1l-.39-.59c-.22-.34-.59-.55-.99-.57l-.48-.04-.38,2.26c0-.44-.1-2.26-.1-2.26v-.02s0,0,0,0c-.66-6.82-4.13-14.25-15.17-17.2-.25-.07-.48-.21-.65-.41l-1.02-1.21c-.23-.27-.57-.44-.93-.45l-.48-.02h0s-.18,0-.18,0h-.18s0,0,0,0l-.48.02c-.36.01-.7.18-.93.45l-1.02,1.21c-.17.2-.4.34-.65.41-11.05,2.95-14.51,10.39-15.17,17.22,0,0-.1,1.81-.1,2.26l-.38-2.27-.31-.02c-.44-.01-.86.2-1.1.57l-.39.59c-.14.21-.21.46-.21.71v.98c0,.25.07.49.21.7l.39.59c.22.34.59.55.99.57l.85.05c.29,4.4,1.41,7.48,1.68,8.27.04.11.09.21.15.31,5.03,7.33,14.52,9.24,16.47,9.29h0s.06,0,.18,0c.12,0,.18,0,.18,0h0c1.95-.05,11.44-1.91,16.47-9.24.07-.09.12-.2.15-.31.27-.79,1.39-3.92,1.68-8.34l.78.03c.44.01.86-.2,1.1-.57l.39-.59c.14-.21.21-.46.21-.71v-.98c0-.25-.07-.49-.21-.7ZM97.47,42.98l.17-.27c.23-.38.68-.57,1.12-.47l1.2.27c.09.02.19.02.28,0l1.2-.27c.43-.1.88.09,1.12.47l.16.27c.7,1.11,3.58,5.49,7.64,8.72,0,0-4.01-2.13-7.25-7.06-.11-.16-.22-.31-.32-.46l-.46-.74c-.22-.35-.63-.53-1.04-.44l-1.13.49h0l-1.26-.49c-.4-.09-.82.08-1.04.44l-.46.74c-.1.15-.21.31-.32.46-3.23,4.94-7.25,7.06-7.25,7.06,4.06-3.23,6.94-7.6,7.64-8.72ZM83.23,55.99c.01.13.03.26.06.37.11.4.6.58.95.36,1.62-1,6.91-4.91,15.28-4.89,8.38-.02,13.88,3.89,15.5,4.89.36.22.84.05.95-.36.03-.12.05-.24.06-.37.02.3,0,.58-.06.82-.11.4-.6.58-.95.36-1.62-1-7.02-3.87-15.39-3.85-8.38-.02-13.77,2.85-15.39,3.85-.36.22-.84.05-.95-.36-.07-.24-.09-.52-.06-.82ZM92.41,74.73c-3.94-.92-5.98-5.4-5.98-5.4,0,0,2.28,3.22,5.77,4.05,1.03.24,1.92.16,2.68-.09,1.75-.58,3.27-1.31,3.49-3.14l.2-1.61-.04,1.61c-.08,2.81-2.51,5.03-5.31,4.73-.26-.03-.53-.07-.81-.14ZM101.71,75.28c-.7-.59-2.37-.76-3.64.29-1.45,1.21-3.03.72-3.03.72,0,0,1.31-.39,2.81-1.79,1.5-1.41,2.86-1.31,4.12-.53,1.06.65,1.3,1.72,3.69,2.15,0,0-2.16.66-3.96-.84ZM108,74.73c-.28.07-.55.11-.81.14-2.8.3-5.23-1.92-5.31-4.73l-.04-1.61.2,1.61c.22,1.83,1.47,2.53,3.22,3.11.76.25,1.65.34,2.68.09,3.49-.83,6.05-4.01,6.05-4.01,0,0-2.04,4.48-5.98,5.4ZM111.38,70.22c-1.28.48-2.75.65-4.58.41-4.84-.63-2.15-4.62-6.59-4.53-4.44-.09-1.83,3.79-6.68,4.42-1.83.24-3.3.07-4.58-.41-2.49-.93-4.13-4.08-3.96-6.67.15,2.3,1.71,4.36,3.96,5.21,1.28.48,2.75.65,4.58.41,2.03-.26,2.75-.97,3.23-1.7-.44.51-1.15.97-2.75,1.16-.91.11-1.71.11-2.45.03l6.25-11.01c1.23-.09,2.12-.11,2.27-.11h0s0,0,.01,0,.01,0,.01,0h0c.43.02,6.82.29,10.44,1.72,2.15.85,3.04,2.19,3.33,3.54.51,2.35-1.05,4.65-3.53,5.49-1.17.4-2.51.54-4.17.34-1.01-.12-1.66-.35-2.11-.63.5.52,1.28.97,2.82,1.17,1.83.24,3.3.07,4.58-.41,2.25-.84,3.81-2.9,3.96-5.21.17,2.59-1.55,5.85-4.04,6.78ZM91.46,63.28l3.06-5.39c.55-.08,1.09-.15,1.6-.2l-6.05,10.57c-.08-.02-.17-.04-.25-.07-2.48-.84-4.03-3.14-3.53-5.49.29-1.35,1.24-2.58,3.33-3.54,1.06-.49,2.41-.83,3.78-1.08l-2.98,5.21h1.03Z"/>
      </g>
      <path class="cls-2" d="M138.38,77.06s22.38-3.82,36.58-3.28c14.19.55,13.1,2.18,28.93,3.82,15.83,1.64-65.51-.55-65.51-.55Z"/>
      <path class="cls-2" d="M-8.18,78.97s15.51-2.58,28.81-2.58,22.16.97,33.24,2.25c11.08,1.29-59.83.32-62.05.32Z"/>
      <path class="cls-2" d="M39.04,62s10.5,1.28,13.5.78,11-.89,11-.89c0,0-9.5-3.06-11.83-3.89-2.33-.83-6.83,2.17-12.67.83-1.62-.37-10.83,1.28-17.67,2.61-6.83,1.33,17.67.56,17.67.56Z"/>
      <path class="cls-2" d="M152.38,61.95s6.67,0,13.83.17c7.17.17,14.06-.22,14.06-.22,0,0-12.89-.78-16.39-1.28s-11.5,1.33-11.5,1.33Z"/>
      <path class="cls-18" d="M-39.44,88.78s10.08-5.17,13.89-5.17,11.17.82,15.25,1.36,14.93,1.83,19.01,2.65c4.09.82,18.2.39,20.11.67,1.91.27,7.99,2.68,11.26,2.68s50.11,1.36,56.11.27c5.99-1.09,20.7-3.27,22.88-3.27s5.45,0,7.63.54,37.58,3.54,48.48.82c10.89-2.72,28.6-.27,37.58-.82s28.87,1.09,28.87,1.09l35.53,7.46-380,.44s57.14-7.36,63.4-8.72Z"/>
      <path class="cls-17" d="M-99.63,87.34s22.33,1.09,31.32,2.18c8.99,1.09,28.05.82,38.95,1.09s36.99-.76,43.8.06c6.81.82,13.07,2.83,19.33,2.83s22.72,2.61,28.17,2.33c5.45-.27,10.01-2.11,19-1.83,8.99.27,23.43-.13,29.42-1.21s28.6-4.09,31.32-3.54c2.72.54,11.98,1.63,19.88,1.63s14.43,1.63,18.79,2.72,28.32-1.91,32.68-.82c4.36,1.09,34.04-4.63,44.12-3,10.08,1.63,18.52,5.17,18.52,5.17l.54,139.21H-99.63V87.34Z"/>
      <path class="cls-6" d="M108.27,104.06s15.19-12.11,25.81-11.02,16.34,3.54,25.6,2.72c9.26-.82,29.95-4.68,34.03-3.59,4.09,1.09,18.26-1.58,38.41-1.58s19.88.82,25.33,0c5.45-.82,12.53-4.36,17.16-3.54v40.58H111.2l-2.93-23.57Z"/>
      <path class="cls-6" d="M-3.4,98.83s21.78-1.78,29.33,0,32.89,4,32.89,4l-68.89.56,6.67-4.56Z"/>
      <path class="cls-12" d="M-99.63,234.17h375.85l.27-121.78s-8.99-.54-11.71-.54-16.61-3.54-23.42-3.54-13.07-1.09-18.52-1.91c-5.45-.82-13.77-.31-19.48-1.94-5.72-1.63-29.99.08-36.25.08s-51.23.68-53.96-1.5c-2.72-2.18-49.91-.72-53.72-.72s-33.23,2.72-38.4,2.72-4.09,3.27-14.98,3c-10.89-.27-57.74,2.18-57.74,2.18h-47.93v123.96Z"/>
      <path class="cls-3" d="M6.27,129.06s21.28,4.81,26.17,3.69c4.89-1.11,15.58,4.31,20.25,5.42s26.69,2.22,31.81,2.44c5.11.22,9.11-5.11,16.89-4s38.67,1.11,40.44,4.44c1.78,3.33,15.06,5.22,20.61,5.44,5.56.22,26.06-5.22,28.94-4.78s11.78,20.44,11.78,20.44l-186,18.44s-44.67-36.22-44-36.22,33.11-15.33,33.11-15.33Z"/>
      <path class="cls-3" d="M88.93,123.61c20.92,2.62,150.26,3.9,190.22,2.67l-2.22-13.77s-8.99-.54-11.71-.54-16.61-3.54-23.42-3.54-13.07-1.09-18.52-1.91c-5.45-.82-14.02.61-19.74-1.03-5.72-1.63-29.9-.96-36.17-.96s-52.94.71-55.67-1.47c-2.72-2.18-48.03-.63-51.84-.63s-33.23,2.72-38.4,2.72-4.09,3.27-14.98,3c-10.89-.27-57.74,2.18-57.74,2.18h-47.93v11.9c28.57-.27,165.85-1.4,188.12,1.38Z"/>
      <path class="cls-7" d="M168.27,115.83s5.33-2.67,9.33-2.17,9.33.83,12.67.83,7.67-1,9.17.83,1,1.5-5.33,1.5h-15c-5.5,0-10.83-1-10.83-1Z"/>
      <path class="cls-7" d="M236.64,108.34c-6.81,0-13.07-1.09-18.52-1.91-5.45-.82-13.63-.63-19.35-2.27-5.72-1.63-32.86-.33-39.12-.33s-47.19,1.1-49.92-1.08c-2.72-2.18-51.21-.4-55.02-.4s-47.49.93-52.66.93,10.17,5.06-.72,4.79c-1.76-.04-4.47-.02-7.76.06-.14.04-.23.07-.23.07,0,0,98-.22,107.56.22,9.56.44,11.78,0,29.11,1.78,17.33,1.78,33.11-1.56,38.89-2.44,5.78-.89,20-1.78,25.33-1.78s18.89.89,24.89,1.56c3.44.38,20.21,1.93,33.92,3.19-5.3-1.03-12.19-2.38-16.39-2.38Z"/>
      <path class="cls-15" d="M41.17,126.97s11.98,4.53,16.98,4.53,12.67,2.67,17,2.67,9.33,1,14.67-.67c5.33-1.67,10-.33,18.67,0,8.67.33,20-3.67,20-3.67,0,0-47.63-7.4-87.31-2.87Z"/>
      <path class="cls-11" d="M-99.51,194.92h376.67l-.27-77.21s-2.04,1.09-4.49.68-11.71-.68-17.16-.14c-5.45.54-15.93.54-19.75-.14-3.81-.68-15.52,2.04-19.34,2.72-3.81.68-6.95,2.59-11.17,2.59s-9.12.68-14.03,1.23-13.75-1.36-19.06-2.86c-5.31-1.5-4.36-1.36-7.08-1.5-2.72-.14-14.3-3.95-17.43-5.86s-16.34-5.04-20.29-6.4c-3.95-1.36-13.48-5.04-16.21-6.95-2.72-1.91-8.14-3.51-9.12-4.36-.69-.6-6.67-1.5-8.85-.95s-6.4,2.04-8.44,3.54-6.81,3.27-9.4,3.68c-2.59.41-9.94,4.22-12.8,4.77s-11.98,3.95-14.57,4.36c-2.59.41-11.44,3.81-13.89,4.09-2.45.27-7.22,1.5-13.62,3.13-6.4,1.63-9.53,1.91-9.53,1.91,0,0,1.36.54,3.81.68s6.67,1.23,11.44,2.45c4.77,1.23,12.66,1.91,15.93,2.59,3.27.68,18.66-1.77,28.19,1.23,9.53,3,28.6-2.04,35.27,1.09,6.67,3.13,3.95-.68,13.75.54,9.8,1.23,16.21-2.45,18.52-1.23s8.44-1.5,10.89.14c2.45,1.63,9.67,0,17.29,1.36s14.43,1.36,19.61.54c5.17-.82,14.71,1.63,15.52,4.09.82,2.45,15.25,2.45,22.06,5.99,6.81,3.54-2.72,3-1.91,3.81s14.98.27,14.16,1.36c-.82,1.09-4.9,0-7.9.82-3,.82-8.44,3.54-14.43,3.54s-17.16-3.54-18.25-4.09c-1.09-.54-16.07-1.09-19.88-.54-3.81.54-6.81-2.45-12.8-3.54-5.99-1.09-17.7,3-18.79,4.9s-4.63.82-7.35.54c-2.72-.27,1.36-4.09.54-5.45-.82-1.36-16.61-.82-19.88-.82s-9.8,1.09-13.62,0-9.8.82-9.8.82l4.9,1.91s-.54,2.45-1.36,2.45-7.08.27-7.08.27c0,0-11.44-3.81-14.71-5.17-3.27-1.36-18.79,1.63-18.79,1.63H-98.97l-.54,51.75Z"/>
      <path class="cls-14" d="M25.24,124.38c4.77,1.23,12.66,1.91,15.93,2.59,3.27.68,18.66-1.77,28.19,1.23,9.53,3,28.6-2.04,35.27,1.09,2.36,1.11,3.54,1.34,4.52,1.25-5.01-2.99-15.86-9.65-16.5-11.69-.83-2.67-2.33-6.5-4-12.33-.99-3.46.79-7.37,2.29-10.14-2.27.71-5.49,1.74-7.15,2.96-2.04,1.5-6.81,3.27-9.4,3.68-2.59.41-9.94,4.22-12.8,4.77-2.86.54-11.98,3.95-14.57,4.36-2.59.41-11.44,3.81-13.89,4.09-2.45.27-7.22,1.5-13.62,3.13-6.4,1.63-9.53,1.91-9.53,1.91,0,0,1.36.54,3.81.68,2.45.14,6.67,1.23,11.44,2.45Z"/>
      <path class="cls-14" d="M99.71,101.45s3.56,5.56,5.78,6.67,4.22,3.33,5.11,4.22,11.56,6.22,11.56,6.22c0,0-6.67-4-9.11-6.67s-4.22-4.22-6-5.56c-1.78-1.33-7.33-4.89-7.33-4.89Z"/>
      <path class="cls-14" d="M104.82,115.11s2.83,2.83,4,3.5c1.17.67,4.33,2.33,4.33,2.33l-8.33-5.83Z"/>
      <path class="cls-14" d="M160.65,123.83s-5.17-1.17-6.67-1.67-11.33-4.33-11.33-4.33c0,0,16.67,4.5,18,6Z"/>
      <g>
        <path class="cls-14" d="M97.49,125.17c-5.48-2.02-17.67,2.69-20.88,4,9.91.23,22.78-2.35,28.02.11,6.67,3.13,3.95-.68,13.75.54,6.9.86,12.11-.7,15.4-1.28-1.86-.11-4.3-.38-6.63-1.05-4.67-1.33-11.33,0-15.67.67-4.33.67-7.67-.67-14-3Z"/>
        <path class="cls-14" d="M25.24,124.38c4.77,1.23,12.66,1.91,15.93,2.59,3.27.68,18.66-1.77,28.19,1.23,1.25.39,2.67.65,4.2.8-2.08-.5-5.05-1.32-6.41-2.16-2.21-1.36-14.33-2.33-16.33-2-2,.33-12,1.67-17-.33s-23.83-3.25-23.83-3.25c0,0,1.36.54,3.81.68,2.45.14,6.67,1.23,11.44,2.45Z"/>
      </g>
      <path class="cls-4" d="M-99.95,90.94l46.85,17.43s5.45,7.99,6.35,8.35,58.18,18.44,58.18,18.44c0,0,29.51,5.16,34.23,5.89s53.56,15.25,61.92,16.89c8.35,1.63,40.67,5.27,48.12,7.81,7.44,2.54,62.46,14.71,74.63,17.61,12.17,2.91,45.39,5.45,45.39,5.45v71.36H-100.13l.18-169.23Z"/>
      <g>
        <path class="cls-16" d="M203.18,149.95c.88-.82,1.32-1.97.96-3.22-.44-1.54-.38-2.98-.34-4.52.09-2.82-2.31-4.96-5.12-4.78-.49.03-.97.12-1.56.2-.34-2.53-1.37-4.53-4.02-5.11-2.38-.51-4.14.56-5.52,2.57-2.24-1.13-4.32-1.25-5.99,1.02-.15.21-.66.25-.98.22-4.56-.47-6.13.77-6.71,5.34-4.59,1.04-5.56,2.78-3.75,6.81-.25.4-.56.8-.79,1.24-.9,1.76-.94,3.51.22,5.17,1.15,1.65,2.83,2.43,4.75,1.97,1.41-.34,1.92.25,2.68,1.22,1.42,1.81,3.12,3.41,4.6,5.18.14.16.26.36.38.56-16.19,34.52-57.57,36.96-97.72,29.45.38-1,1.34-2.25,1.67-2.59,1.2-1.21,2.5-2.34,3.72-3.47-2,.93-4.44,1.2-5.83,3.44-.11-.09-.23-.19-.34-.28.46-1.41.91-2.81,1.37-4.22-.07-.04-.15-.07-.22-.11-1.04,1.64-2.09,3.29-3.13,4.93-.13,0-.26-.01-.39-.02.71-2.18,1.41-4.37,2.12-6.55-.07-.05-.14-.1-.21-.16-1.03,1.67-2.07,3.33-3.1,5h-.21c.34-2.23.68-4.46,1.02-6.69-.08-.03-.15-.07-.23-.1-.74,1.75-1.49,3.5-2.22,5.24-1.36-1.61-2.67-3.15-3.98-4.69-.06.05-.12.1-.18.15.8,1.42,1.6,2.83,2.4,4.25-.09.07-.19.13-.28.2-1.08-.85-2.16-1.7-3.24-2.55.61,1.1,1.47,1.97,2.12,2.96.65.99,1.11,2.12,1.65,3.18-.09.05-.18.09-.27.14-1-1.24-2.01-2.48-3.01-3.72-.06.04-.12.08-.18.12.31.79.62,1.58.94,2.4-1.84-1.01-3.59-1.97-5.34-2.92-.07.12-.14.23-.21.35,1.31.92,2.57,1.88,3.53,3.15-42.89-10.05-81.23-29.14-81.54-29.24l-.89,79.11h224.22v-90.67h-10.87ZM177.07,156.61c-.22-.25.09-.98.24-2.05,2.03,2.12,3.92,2.35,6.14,1.45-.25,1.99-.45,4.34-.65,6.06-.06.14-.11.28-.17.41-1.7-1.76-3.94-4.07-5.55-5.87Z"/>
        <path class="cls-5" d="M188.93,209.95c-12.43,2.33-23.88,3.67-34.47,4.19l3.25-4.52-1.8,1.09c-3.65,2.21-7.79,3.46-12.05,3.68-.3,0-.58-.01-.88-.02-1.34-.76-1.03-1.76-.28-2.52,1.8-1.82,3.74-3.5,5.56-5.18-3,1.39-6.64,1.79-8.72,5.15-.17-.14-.34-.28-.51-.42.68-2.1,1.37-4.21,2.05-6.31-.11-.06-.22-.11-.33-.17-1.56,2.46-3.12,4.91-4.69,7.37-.19,0-.39-.02-.58-.02,1.06-3.26,2.11-6.53,3.17-9.79-.1-.08-.21-.16-.31-.23-1.55,2.49-3.09,4.98-4.64,7.48-.11,0-.21,0-.32,0,.51-3.34,1.02-6.67,1.52-10.01-.11-.05-.23-.1-.34-.15-1.11,2.62-2.22,5.24-3.32,7.83-2.04-2.4-3.99-4.7-5.95-7.01-.09.07-.18.15-.27.23,1.2,2.12,2.39,4.23,3.59,6.35-.14.1-.28.2-.42.29-1.61-1.27-3.23-2.55-4.84-3.82.92,1.64,2.19,2.94,3.17,4.43.97,1.49,1.65,3.16,2.46,4.76-.14.07-.27.14-.41.21-1.5-1.85-3-3.7-4.5-5.56-.09.06-.17.12-.26.18.46,1.18.92,2.36,1.41,3.59-2.76-1.51-5.37-2.94-7.98-4.37-.1.17-.21.35-.31.52,2.31,1.63,4.53,3.34,6.03,5.82-34.56-4.52-57.55-19.76-75.09-37.85.36-.28.71-.71,1-1.03.54-.59.94-1.3,1.5-2.1h-1.45c1.39-3.45,4.08-5.52,6.88-7.5-.1-.17-.21-.35-.31-.52-2.61,1.43-5.22,2.86-7.98,4.37.48-1.23.94-2.41,1.41-3.59-.09-.06-.17-.12-.26-.18-1.5,1.85-3,3.7-4.5,5.56-.14-.07-.27-.14-.41-.21.81-1.59,1.49-3.27,2.46-4.76.98-1.49,2.25-2.79,3.17-4.43-1.61,1.27-3.23,2.55-4.84,3.82-.14-.1-.28-.2-.42-.29,1.2-2.12,2.39-4.23,3.59-6.35-.09-.08-.18-.15-.27-.23-1.95,2.3-3.91,4.61-5.95,7.01-1.1-2.59-2.21-5.21-3.32-7.83-.11.05-.23.1-.34.15.48,3.18.97,6.35,1.45,9.53-.42-.39-.84-.77-1.25-1.16-1.21-1.95-2.42-3.9-3.63-5.85-.1.08-.21.16-.31.24.32.98.63,1.96.95,2.94-1.71-1.5-3.41-2.92-5.1-4.28-.1-.56-.21-1.11-.33-1.67-.32-1.49.13-2.28,1.4-2.95.88-.46,1.68-1.11,2.39-1.81.86-.85,1.71-.98,2.95-1.11,2.32-.23,4.67-1.1,6.78-2.17,1.52-.77,1.22-3.06-.21-4.14-.96-.72-1.82-1.64-2.87-2.15,0,0-2.75-1.59-4.2-.3-.87.78-1.92,1.18-2.62,1.38-.28.04-.56.1-.82.18-.24,0-2.5.03-1.89,2.47.65,2.58,1.7,3.7,3.94,3.73-1.59.92-4.04,2.38-5.63,3.3,0-3.13-.04-7.17.02-10.3,0-.39.32-.86.63-1.13,2.46-2.18,4.95-4.32,7.54-6.56,5.42,3.08,9.84-.14,10.08-5.52.59-.18,1.24-.36,1.87-.59,2.21-.81,3.64-2.82,3-5.08-.54-1.89-.47-3.66-.41-5.55.11-3.47-2.85-6.1-6.3-5.88-.6.04-1.19.15-1.91.25-.41-3.12-1.68-5.57-4.94-6.28-2.92-.63-5.09.69-6.79,3.16-2.75-1.39-5.31-1.53-7.36,1.25-.19.25-.81.31-1.21.27-5.61-.58-7.54.95-8.25,6.57-5.64,1.28-6.83,3.41-4.61,8.38-.31.49-.69.99-.97,1.53-1.11,2.16-1.15,4.32.27,6.35,1.41,2.03,3.48,2.99,5.84,2.42,1.74-.42,2.37.3,3.3,1.5,1.75,2.23,3.83,4.2,5.66,6.37.55.66,1.02,1.65,1.01,2.49-.03,2.6-.11,5.2-.2,7.8-18.88-14.14-34.41-19.64-34.41-19.64l4.22,123.33h249.56v-48.44h-55.56ZM29.39,134.94l7.2-1.25-7.9,6.93.7-5.68ZM18.71,136.23c-.27-.31.12-1.2.29-2.52,2.5,2.61,4.82,2.89,7.55,1.78-.34,2.71-.61,5.96-.88,8.1-2.1-2.18-4.95-5.1-6.96-7.36Z"/>
      </g>
      <path class="cls-5" d="M161.42,188.5l-2.43-1.1-12.77-14.3c-.34-.39-.2-1,.28-1.19l2.01-.82-.19-.56c.09-.06.19-.12.3-.18.63,1.9.89,3.69,1.17,3.94.58.51-.18-3.34-.21-4.57.1-.07.21-.15.31-.22.89.41,4.07,1.88,4.28,1.63.16-.19-2.22-1.63-3.42-2.39.23-.27.33-.51.2-.67-.19-.23-.73-.33-1.38-.37.12-1.27.61-5.53-.04-5.11-.58.37-.38,4.12-.3,5.1-.33,0-.68,0-1.02,0-1.83-1.02-4.49-1.64-4.49-1.64-.19.25,2.26,1.23,2.85,1.66l-3.42.71c-.59.12-1.19-.08-1.59-.52l-3.71-4.16,5.63-1.21c1.05-.23,1.99-.83,2.63-1.69,1.73-2.32,5.11-6.86,5.21-7.01.82-1,.38-2.51-.85-2.91l-8.66-2.65c-.31-.1-.63-.14-.95-.12-3.41.24-6.77.99-9.96,2.23l-3.66,1.42-4.9-5.48-1.81-2.02c-.31-.34-.2-.89.22-1.09l3.62-1.73h0c.05,1.87.2,4.49.68,4.18.62-.4.34-4.33.23-5.55.1-.08.2-.16.29-.24.91.36,3.41,1.34,3.6,1.08.15-.2-1.55-1.2-2.79-1.89.21-.28.3-.52.16-.68-.2-.22-.75-.29-1.4-.3.05-1.28.19-6.27-.46-6.14-.67.13-.01,5.17.12,6.14-.33,0-.68.04-1.02.07-1.89-.92-4.48-1.54-4.48-1.54-.17.27,1.48,1.15,2.09,1.55l-4.21,1.33c-.45.14-.95,0-1.27-.35l-18.88-21.08-.82-2.54c-.21-.66-.93-1.03-1.59-.81l-3.52,1.17c-.53.18-.98.54-1.27,1.02l-2.71,4.6c-.38.65-.31,1.47.19,2.04l9.37,10.79,2.49-.23-2.61,2.02,17.37,19.52c.45.5.37,1.27-.16,1.69-1.08.86-2.26,1.59-3.51,2.18l-4.96,2.36c-1.08.51-2.37.12-2.99-.9l-.48-.79c.97-.7,2.06-1.61,1.81-1.99-.33-.49-2.34-.52-3.31-.5l-2.13-3.53-1.28.41c-1,.32-2.09.05-2.82-.7-1.38-1.41-3.64-3.77-5.06-5.52-1.78-2.18-6.21.94-7.75,2.13-.3.23-.33.66-.08.94l10.19,11.15-.81,6.47-2.96.62-1.24,5.32,13.39-2.95,3.78,4.35c.43.49,1.05.77,1.7.75,2.24-.07,7.31-.45,7.25-2.55l-3.82-4.48,15.15-3.3.09-.02,17.04,19.03,2.3-2.36-.51,2.45,9.66,10.54c.51.56,1.32.73,2.01.42l4.88-2.17c.51-.23.93-.63,1.16-1.14l1.56-3.36c.29-.63.02-1.38-.62-1.67Z"/>
      <rect class="cls-10" x="7.49" y="6.83" width="184" height="11.17"/>
      <rect class="cls-9" x="7.15" y="6.83" width="61.33" height="11.17"/>
      <rect class="cls-4" x="129.82" y="6.83" width="61.33" height="11.17"/>
      <path class="cls-11" d="M128.38,103.95s31.58-2.03,33.61-2.28c3.17-.39,10.61,1.06,14.06.72,3.44-.33,16.56.33,16.56.33l.83,1.28-65.06-.06Z"/>
    </g>
    <path class="cls-8" d="M84.15,69.06l-1.09-6.55c-.36-2.18.6-4.66,2.64-5.51,5.36-2.23,16.56-5,28.51.15,1.92.82,3.09,2.79,2.88,4.87l-.69,6.99-.14-6.36c-.04-1.99-1.31-3.74-3.19-4.4-5.09-1.79-15.68-4.42-26.2-.26-1.9.75-3.12,2.63-3.02,4.67l.3,6.41Z"/>
  </g>
  <g id="CADRE">
    <path class="cls-5" d="M190.07,7.05H8.8c-.78,0-1.42.64-1.42,1.42v146.47c.66,21.01,6.64,43.28,27.13,56.93,16.04,10.69,28.22,15.56,41.36,23,.51.25,1.02.51,1.53.77,7.48,3.81,14.62,8.35,22.04,12.65h0s0,0,0,0c7.42-4.31,14.56-8.84,22.04-12.65.51-.26,1.02-.52,1.53-.77,13.14-7.44,25.32-12.31,41.36-23,20.49-13.66,26.46-35.92,27.13-56.93V8.47c0-.78-.64-1.42-1.42-1.42ZM13.5,11.5h171.86c.74,0,1.35.6,1.35,1.35v4.71H12.15v-4.71c0-.74.6-1.35,1.35-1.35ZM160.99,207.5c-15.2,10.14-26.75,14.76-39.21,21.81-.49.24-.97.48-1.45.73-7.09,3.62-13.86,7.91-20.9,12h0s0,0,0,0c-7.03-4.09-13.8-8.38-20.9-12-.48-.25-.97-.49-1.45-.73-12.46-7.05-24.01-11.67-39.21-21.81-19.42-12.95-25.09-34.06-25.72-53.98V18.56h174.56v134.97c-.63,19.92-6.3,41.03-25.72,53.98Z"/>
  </g>
  <g id="TEXTE">
    <g>
      <path class="cls-5" d="M21.73,26.76c0,.19.14.34.41.43.27.1.61.19,1.02.27.41.09.85.19,1.33.3s.92.29,1.33.53c.41.24.75.56,1.02.96s.41.92.41,1.56c0,.59-.12,1.1-.36,1.53-.24.43-.57.79-.98,1.07-.41.28-.89.49-1.43.62-.54.13-1.11.2-1.71.2-.81,0-1.56-.04-2.25-.13s-1.34-.25-1.96-.48l-.27-.33.18-2.52.36-.17c.49.22,1.05.41,1.68.55.63.14,1.26.21,1.89.21.35,0,.65-.04.89-.13.24-.09.36-.23.36-.42,0-.21-.14-.37-.41-.48-.27-.11-.61-.2-1.02-.29-.41-.09-.85-.19-1.33-.31-.48-.12-.92-.3-1.33-.52s-.75-.53-1.02-.92c-.27-.38-.41-.89-.41-1.51,0-.54.11-1.02.33-1.44.22-.43.52-.79.92-1.09s.87-.53,1.44-.69c.56-.16,1.19-.24,1.88-.24s1.32.05,1.96.14c.64.09,1.25.22,1.82.4l.24.29-.17,2.58-.33.15c-.58-.18-1.19-.33-1.84-.44-.65-.11-1.24-.17-1.76-.17-.32,0-.55.04-.68.12s-.2.2-.2.36Z"/>
      <path class="cls-5" d="M39.82,33.87l-.24.26h-3.39l-.24-.24-.47-1.52h-3.65l-.46,1.44-.34.32h-3.13l-.26-.26,3.75-10.23.3-.15h4.12l.32.15,3.68,10.23ZM34.73,29.88l-.9-2.9h-.27l-.93,2.9h2.1Z"/>
      <path class="cls-5" d="M45.49,23.48c1.39,0,2.46.33,3.22.99.76.66,1.14,1.6,1.14,2.83,0,1.3-.38,2.3-1.14,3.01s-1.83,1.06-3.22,1.06h-1.47v2.49l-.26.27h-3.01l-.26-.26v-10.14l.27-.26h4.73ZM44.97,28.69c.46,0,.8-.11,1.03-.33.23-.22.34-.54.34-.96s-.11-.7-.34-.92-.57-.33-1.03-.33h-.96v2.54h.96Z"/>
      <path class="cls-5" d="M54.31,26.15v1.34h3.4l.26.27v1.96l-.24.26h-3.42v1.47h5.23l.26.26v2.16l-.24.26h-8.51l-.26-.26v-10.12l.26-.27h8.5l.26.27v2.14l-.24.26h-5.24Z"/>
      <path class="cls-5" d="M71.26,23.75v5.87c0,.71-.12,1.35-.36,1.92-.24.57-.58,1.06-1.02,1.47-.44.41-.98.72-1.6.94-.63.22-1.33.33-2.1.33s-1.47-.11-2.11-.33-1.18-.54-1.63-.94c-.45-.41-.79-.89-1.04-1.47-.25-.57-.37-1.21-.37-1.92v-5.87l.26-.27h3l.27.27v5.87c0,.26.04.5.13.71.09.21.21.39.36.55.15.15.33.27.52.35s.41.12.63.12c.44,0,.8-.15,1.09-.46s.44-.73.44-1.27v-5.87l.26-.27h2.99l.27.27Z"/>
      <path class="cls-5" d="M82.25,33.86l-.27.27h-3.56l-1.49-2.77h-.88v2.51l-.26.26h-3.01l-.26-.26v-10.12l.27-.27h4.86c1.45,0,2.57.33,3.36.99.79.66,1.19,1.6,1.19,2.83,0,.78-.15,1.46-.44,2.04-.29.58-.77,1.04-1.41,1.38l1.9,3.15ZM77.22,28.7c.49,0,.85-.11,1.08-.33.23-.22.35-.55.35-.97,0-.83-.48-1.25-1.43-1.25h-1.17v2.55h1.17Z"/>
      <path class="cls-5" d="M86.76,26.76c0,.19.14.34.41.43.27.1.61.19,1.02.27.41.09.85.19,1.33.3s.93.29,1.33.53c.41.24.74.56,1.02.96s.41.92.41,1.56c0,.59-.12,1.1-.36,1.53-.24.43-.57.79-.98,1.07-.41.28-.89.49-1.43.62s-1.11.2-1.71.2c-.81,0-1.56-.04-2.25-.13-.69-.09-1.34-.25-1.96-.48l-.27-.33.18-2.52.36-.17c.49.22,1.05.41,1.68.55.63.14,1.27.21,1.89.21.36,0,.65-.04.89-.13.24-.09.36-.23.36-.42,0-.21-.14-.37-.41-.48-.27-.11-.61-.2-1.02-.29-.41-.09-.85-.19-1.33-.31-.48-.12-.92-.3-1.33-.52-.41-.23-.74-.53-1.02-.92-.27-.38-.41-.89-.41-1.51,0-.54.11-1.02.33-1.44.22-.43.52-.79.92-1.09.4-.3.87-.53,1.44-.69.56-.16,1.19-.24,1.88-.24s1.32.05,1.96.14,1.25.22,1.82.4l.24.29-.17,2.58-.33.15c-.58-.18-1.19-.33-1.84-.44-.65-.11-1.24-.17-1.76-.17-.32,0-.55.04-.68.12s-.2.2-.2.36Z"/>
      <path class="cls-5" d="M97.83,30.5h-4.04l-.27-.26v-1.6l.27-.27h4.04l.27.27v1.6l-.27.26Z"/>
      <path class="cls-5" d="M104.44,23.48c1.39,0,2.46.33,3.22.99.76.66,1.14,1.6,1.14,2.83,0,1.3-.38,2.3-1.14,3.01-.76.71-1.83,1.06-3.22,1.06h-1.48v2.49l-.26.27h-3.01l-.26-.26v-10.14l.27-.26h4.73ZM103.92,28.69c.46,0,.8-.11,1.03-.33.23-.22.34-.54.34-.96s-.11-.7-.34-.92c-.23-.22-.57-.33-1.03-.33h-.96v2.54h.96Z"/>
      <path class="cls-5" d="M115.05,23.37c.85,0,1.64.13,2.35.4.71.27,1.33.64,1.85,1.13.52.48.92,1.05,1.22,1.72s.44,1.39.44,2.18-.15,1.52-.44,2.19c-.29.67-.7,1.25-1.22,1.74-.52.49-1.13.87-1.85,1.15-.71.27-1.5.41-2.35.41s-1.63-.14-2.35-.41c-.71-.27-1.33-.65-1.85-1.14-.52-.49-.92-1.07-1.22-1.74-.29-.67-.44-1.41-.44-2.2s.15-1.52.44-2.18c.29-.66.7-1.24,1.22-1.72.52-.48,1.13-.86,1.85-1.13.71-.27,1.5-.4,2.35-.4ZM115.1,26.3c-.3,0-.59.06-.87.19-.28.13-.52.3-.73.52s-.37.48-.49.79-.18.65-.18,1.01.06.7.18,1.01c.12.31.29.58.5.81s.46.41.73.53.56.19.87.19.59-.06.86-.19c.27-.13.5-.3.7-.53.2-.23.35-.5.46-.81.11-.31.17-.65.17-1.01s-.06-.7-.17-1.01-.27-.57-.46-.79c-.2-.22-.43-.39-.7-.52-.27-.13-.55-.19-.86-.19Z"/>
      <path class="cls-5" d="M128.67,31.58h-1.6l-1.52-2.57h-.17v4.85l-.27.27h-3.01l-.26-.24v-10.14l.26-.27h3.89l1.82,3.3h.17l1.81-3.3h3.89l.27.27v10.14l-.26.24h-3.01l-.26-.26v-4.86h-.18l-1.58,2.57Z"/>
      <path class="cls-5" d="M140.42,23.48c1.39,0,2.46.33,3.22.99.76.66,1.14,1.6,1.14,2.83,0,1.3-.38,2.3-1.14,3.01s-1.83,1.06-3.22,1.06h-1.47v2.49l-.26.27h-3.01l-.26-.26v-10.14l.27-.26h4.73ZM139.91,28.69c.46,0,.8-.11,1.03-.33.23-.22.34-.54.34-.96s-.11-.7-.34-.92-.57-.33-1.03-.33h-.96v2.54h.96Z"/>
      <path class="cls-5" d="M148.99,34.13h-3.02l-.26-.26v-10.14l.27-.26h2.99l.26.26v10.15l-.24.24Z"/>
      <path class="cls-5" d="M154.33,26.15v1.34h3.4l.26.27v1.96l-.24.26h-3.42v1.47h5.23l.26.26v2.16l-.24.26h-8.51l-.26-.26v-10.12l.26-.27h8.5l.26.27v2.14l-.24.26h-5.24Z"/>
      <path class="cls-5" d="M170.92,33.86l-.27.27h-3.56l-1.49-2.77h-.88v2.51l-.26.26h-3.01l-.26-.26v-10.12l.27-.27h4.86c1.45,0,2.57.33,3.36.99.79.66,1.19,1.6,1.19,2.83,0,.78-.15,1.46-.44,2.04-.29.58-.77,1.04-1.41,1.38l1.9,3.15ZM165.88,28.7c.49,0,.85-.11,1.08-.33.23-.22.35-.55.35-.97,0-.83-.48-1.25-1.43-1.25h-1.17v2.55h1.17Z"/>
      <path class="cls-5" d="M175.43,26.76c0,.19.14.34.41.43.27.1.61.19,1.02.27.41.09.85.19,1.33.3s.92.29,1.33.53c.41.24.75.56,1.02.96s.41.92.41,1.56c0,.59-.12,1.1-.36,1.53-.24.43-.57.79-.98,1.07-.41.28-.89.49-1.43.62-.54.13-1.11.2-1.71.2-.81,0-1.56-.04-2.25-.13s-1.34-.25-1.96-.48l-.27-.33.18-2.52.37-.17c.49.22,1.05.41,1.68.55.63.14,1.26.21,1.89.21.35,0,.65-.04.89-.13.24-.09.36-.23.36-.42,0-.21-.14-.37-.41-.48-.27-.11-.61-.2-1.02-.29-.41-.09-.85-.19-1.33-.31-.48-.12-.92-.3-1.33-.52-.41-.23-.75-.53-1.02-.92-.27-.38-.41-.89-.41-1.51,0-.54.11-1.02.33-1.44.22-.43.52-.79.92-1.09.39-.3.87-.53,1.44-.69.56-.16,1.19-.24,1.88-.24s1.32.05,1.96.14,1.25.22,1.82.4l.24.29-.17,2.58-.33.15c-.58-.18-1.19-.33-1.84-.44-.65-.11-1.24-.17-1.76-.17-.32,0-.55.04-.68.12s-.2.2-.2.36Z"/>
      <path class="cls-16" d="M21.6,47.24c-.68,0-1.28-.09-1.8-.27-.52-.18-.96-.43-1.31-.77-.35-.34-.62-.75-.81-1.23s-.28-1.03-.28-1.65c0-1.24.36-2.19,1.09-2.84.72-.65,1.78-.98,3.16-.98.3,0,.6.01.88.04.28.03.53.05.75.08.26.04.51.09.74.13l.17.21-.13,1.35-.25.12c-.2-.06-.42-.11-.64-.16-.2-.04-.42-.07-.67-.1-.25-.03-.52-.05-.79-.05-.72,0-1.29.19-1.7.57-.41.38-.62.93-.62,1.65,0,.35.06.66.17.95.11.29.27.53.47.73.2.2.45.35.73.47s.6.17.94.17c.33,0,.62-.02.89-.05.26-.03.49-.07.68-.11.22-.04.41-.09.57-.15l.24.12.12,1.35-.17.21c-.17.04-.37.08-.61.12-.2.04-.45.07-.75.09-.3.02-.65.04-1.05.04Z"/>
      <path class="cls-16" d="M30.49,45.74v1.23l-.18.2h-4.78l-.2-.2v-7.21l.2-.2h1.55l.18.2v5.79h3.04l.18.2Z"/>
      <path class="cls-16" d="M33.45,41.08v1.55h2.24l.2.2v1.05l-.2.18h-2.24v1.57h3.82l.2.2v1.13l-.2.2h-5.57l-.18-.2v-7.21l.18-.2h5.57l.2.2v1.13l-.2.2h-3.82Z"/>
      <path class="cls-16" d="M45.25,42.21c0,.59-.12,1.08-.35,1.49-.24.41-.58.73-1.03.95l1.56,2.31-.18.2h-1.96l-1.31-2.14h-1.35v1.95l-.18.18h-1.55l-.2-.18v-7.22l.2-.2h3.2c1.01,0,1.79.23,2.34.68.55.46.82,1.11.82,1.97ZM42.09,43.5c.42,0,.75-.1.98-.31.23-.21.35-.51.35-.92s-.12-.7-.35-.9c-.23-.2-.56-.3-.98-.3h-1.47v2.42h1.47Z"/>
      <path class="cls-16" d="M54.94,39.76v7.21l-.2.2h-1.55l-.18-.2v-4.65h-.1l-1.38,2.49h-1.56l-1.36-2.49h-.1v4.65s-.18.2-.18.2h-1.55l-.18-.2v-7.21l.18-.2h2.06l1.88,3.3h.09l1.87-3.3h2.07l.2.2Z"/>
      <path class="cls-16" d="M60.13,39.5c.59,0,1.13.1,1.63.29.5.2.94.47,1.31.81s.66.75.86,1.22c.21.47.31.98.31,1.53s-.1,1.06-.31,1.54c-.21.48-.49.89-.86,1.24-.37.35-.81.62-1.31.82-.5.2-1.05.3-1.63.3s-1.13-.1-1.63-.3c-.5-.2-.93-.47-1.3-.82-.37-.35-.66-.76-.86-1.23-.21-.47-.31-.99-.31-1.55s.1-1.07.31-1.54c.21-.47.49-.88.86-1.22s.8-.61,1.3-.8,1.04-.29,1.63-.29ZM60.15,41.11c-.29,0-.56.06-.82.17-.26.11-.49.27-.68.47s-.35.44-.47.72c-.12.28-.17.57-.17.89s.06.62.17.9c.12.28.27.52.47.72.2.2.42.36.68.48.26.12.54.17.82.17s.57-.06.82-.17c.25-.12.48-.28.67-.48.19-.2.34-.44.45-.72.11-.28.16-.58.16-.9s-.05-.62-.16-.89c-.11-.28-.26-.51-.45-.72s-.41-.36-.67-.47c-.25-.11-.53-.17-.82-.17Z"/>
      <path class="cls-16" d="M72.52,39.75v7.22l-.18.2h-2.69l-2.36-5.3h-.1v5.11s-.19.18-.19.18h-1.55l-.18-.18v-7.22l.18-.2h2.67l2.36,5.3h.11v-5.11l.2-.2h1.55l.18.2Z"/>
      <path class="cls-16" d="M79.8,39.76v1.18l-.2.2h-2.1v5.84l-.2.18h-1.55l-.18-.18v-5.84h-2.08l-.18-.2v-1.18l.18-.2h6.11l.2.2Z"/>
      <path class="cls-16" d="M126.87,45.74v1.23l-.18.2h-4.78l-.2-.2v-7.21l.2-.2h1.55l.19.2v5.79h3.04l.18.2Z"/>
      <path class="cls-16" d="M127.78,39.55c.25,0,.46.08.64.23.18.15.27.38.27.67,0,.14-.02.27-.06.39-.04.12-.1.23-.17.34l-.97,1.37h-.73v-.37l.48-1.01c-.13-.08-.22-.18-.28-.31-.06-.13-.09-.26-.09-.41,0-.27.09-.48.26-.65.17-.17.39-.25.65-.25Z"/>
      <path class="cls-16" d="M136.66,39.76v7.21l-.18.2h-1.55l-.2-.2v-2.79h-3.15v2.79l-.19.2h-1.55l-.2-.2v-7.21l.2-.2h1.55l.19.2v2.91h3.15v-2.91l.2-.2h1.55l.18.2Z"/>
      <path class="cls-16" d="M140.12,41.08v1.55h2.24l.2.2v1.05l-.2.18h-2.24v1.57h3.82l.2.2v1.13l-.2.2h-5.57l-.18-.2v-7.21l.18-.2h5.57l.2.2v1.13l-.2.2h-3.82ZM140.47,38.47l.79-1.55,1.92.17v.3l-1.45,1.37h-1.26v-.29Z"/>
      <path class="cls-16" d="M151.86,42.21c0,.59-.12,1.08-.35,1.49-.24.41-.58.73-1.03.95l1.56,2.31-.18.2h-1.97l-1.31-2.14h-1.35v1.95l-.18.18h-1.55l-.2-.18v-7.22l.2-.2h3.2c1.01,0,1.79.23,2.34.68.55.46.82,1.11.82,1.97ZM148.7,43.5c.42,0,.75-.1.98-.31.23-.21.35-.51.35-.92s-.12-.7-.35-.9c-.23-.2-.56-.3-.98-.3h-1.47v2.42h1.47Z"/>
      <path class="cls-16" d="M160.86,46.96l-.21.21h-1.63l-.2-.21-.5-1.27h-3.3s-.52,1.3-.52,1.3l-.17.17h-1.62l-.16-.17,3.01-7.29.17-.14h2l.17.13,2.95,7.26ZM157.8,44.29l-1.01-2.89h-.23l-1.01,2.89h2.25Z"/>
      <path class="cls-16" d="M168.49,39.75v4.22c0,.5-.08.95-.24,1.36-.16.41-.39.75-.69,1.04s-.66.5-1.09.66c-.43.15-.91.23-1.44.23s-1.02-.08-1.45-.23c-.43-.15-.8-.37-1.1-.66s-.54-.63-.71-1.04-.25-.86-.25-1.36v-4.22l.18-.18h1.55l.2.18v4.22c0,.52.15.93.44,1.22s.68.44,1.14.44.82-.15,1.1-.44.42-.7.42-1.22v-4.22l.18-.18h1.55l.2.18Z"/>
      <path class="cls-16" d="M174.99,45.74v1.23l-.18.2h-4.78l-.2-.2v-7.21l.2-.2h1.55l.19.2v5.79h3.04l.18.2Z"/>
      <path class="cls-16" d="M181.82,39.76v1.18l-.2.2h-2.1v5.84l-.2.18h-1.55l-.18-.18v-5.84h-2.08l-.19-.2v-1.18l.19-.2h6.11l.2.2Z"/>
    </g>
  </g>
</svg>